<svg width="24" height="24" viewBox="0 0 24 24" fill="none" xmlns="http://www.w3.org/2000/svg">
<g clip-path="url(#clip0_2229_111)">
<path d="M9.101 23.6919V15.7119H6.627V12.0449H9.101V10.4649C9.101 6.37992 10.949 4.48692 14.959 4.48692C15.36 4.48692 15.914 4.52892 16.427 4.58992C16.8112 4.62946 17.1924 4.69461 17.568 4.78492V8.10992C17.3509 8.08967 17.133 8.07766 16.915 8.07392C16.6707 8.06758 16.4264 8.06458 16.182 8.06492C15.475 8.06492 14.923 8.16092 14.507 8.37392C14.2273 8.51423 13.9922 8.7296 13.828 8.99592C13.57 9.41592 13.454 9.99092 13.454 10.7479V12.0449H17.373L16.987 14.1479L16.7 15.7119H13.454V23.9569C19.396 23.2389 24 18.1799 24 12.0449C24 5.41792 18.627 0.0449219 12 0.0449219C5.373 0.0449219 0 5.41792 0 12.0449C0 17.6729 3.874 22.3949 9.101 23.6919Z" fill="black"/>
</g>
<defs>
<clipPath id="clip0_2229_111">
<rect width="24" height="24" fill="white"/>
</clipPath>
</defs>
</svg>
